<?xml version="1.0" encoding="iso-8859-1"?>
<!-- Generator: Adobe Illustrator 18.1.1, SVG Export Plug-In . SVG Version: 6.00 Build 0)  -->
<svg version="1.1" id="Capa_1" xmlns="http://www.w3.org/2000/svg" xmlns:xlink="http://www.w3.org/1999/xlink" x="0px" y="0px"
	 viewBox="0 0 611.999 611.999" style="enable-background:new 0 0 611.999 611.999;" xml:space="preserve">
<g>
	<g>
		<path d="M460.839,349.361c0.665-5.7-0.922-11.093-4.508-15.253c-3.736-4.335-9.115-6.722-15.146-6.722h-28.26v-11.038
			c0-12.167-9.898-22.065-22.065-22.065h-50.267v-168.21l89.94-105.278c6.382-6.292,5.641-11.442,4.62-13.966
			C434.122,4.277,431.021,0,421.846,0H190.153c-9.175,0-12.276,4.277-13.307,6.827c-1.022,2.524-1.763,7.674,4.62,13.966
			l89.941,105.278v168.21H221.14c-12.167,0-22.065,9.898-22.065,22.065v11.038h-28.258c-6.034,0-11.413,2.389-15.149,6.723
			c-3.584,4.16-5.172,9.552-4.508,15.252c-0.483,5.225-2.946,37.963,6.678,79.285c17.825,76.546,52.109,121.117,77.733,145.029
			c29.8,27.81,58.398,38.156,70.349,38.324l0.078,0.001l0.078-0.001c11.953-0.169,40.552-10.516,70.353-38.324
			c25.623-23.911,59.908-68.482,77.733-145.029C463.785,387.323,461.322,354.586,460.839,349.361z M234.515,25.836h142.967
			l-67.95,87.329c-0.961,0.821-2.203,1.269-3.534,1.269s-2.573-0.448-3.534-1.269L234.515,25.836z"/>
	</g>
</g>
<g>
</g>
<g>
</g>
<g>
</g>
<g>
</g>
<g>
</g>
<g>
</g>
<g>
</g>
<g>
</g>
<g>
</g>
<g>
</g>
<g>
</g>
<g>
</g>
<g>
</g>
<g>
</g>
<g>
</g>
</svg>
